<svg width="1024" height="256" viewBox="0 0 270.93 67.733" xmlns="http://www.w3.org/2000/svg"><path d="M242.135 1.292a20.531 27.375 90 0 1 27.376 20.532 20.531 27.375 90 0 1-27.376 20.531 20.531 27.375 90 0 1-1.244-.033A12.356 12.356 0 0 1 228.648 53.1a12.356 12.356 0 0 1-.561-.019 10.242 10.242 0 0 0 4.327-8.35 10.242 10.242 0 0 0-.821-3.973 20.531 27.375 90 0 1-16.833-18.934 20.531 27.375 90 0 1 27.375-20.532z" fill="#fff" stroke="#4950d8" stroke-width="2.58666"/><path d="M239.05 9.092q0 2.88.548 5.554.48 2.606 1.029 5.418-2.469-1.372-4.869-2.675t-5.212-2.263l-.41-.137-1.921 5.76.549.206q2.742 1.028 5.486 1.372 2.742.274 5.623.48-2.264 1.92-4.252 3.77-1.989 1.784-3.703 4.184l-.343.48 5.006 3.497.274-.412q1.646-2.468 2.88-4.868 1.166-2.469 2.4-5.074 1.235 2.605 2.469 5.074 1.166 2.4 2.811 4.868l.275.412 5.005-3.497-.342-.48q-1.715-2.4-3.704-4.183-1.988-1.851-4.25-3.772 2.88-.205 5.622-.48 2.743-.343 5.486-1.371l.548-.206-1.92-5.76-.411.137q-2.812.96-5.212 2.264-2.4 1.302-4.868 2.674.548-2.812 1.097-5.418.48-2.674.48-5.554v-.548h-6.171z" fill="#ec8100"/><g fill="#4950d8" stroke-width="3.185"><path d="M27.233 58.23q-.562 2.3-1.84 4.088-1.226 1.737-3.015 2.964-1.737 1.226-3.935 1.84-2.146.613-4.548.613-6.592 0-10.271-4.65-3.628-4.65-3.628-14.054 0-3.475.613-7.103.613-3.629 2.146-6.592 1.533-2.964 4.088-4.855 2.606-1.89 6.541-1.89 1.89 0 3.68.51 1.788.46 3.117 1.482 1.38.971 2.197 2.504.818 1.533.818 3.577 0 1.533-.613 2.504-.562.971-2.147.971-.613 0-1.482-.204-.817-.256-1.737-1.124.664-.41 1.073-1.482.409-1.125.409-2.198 0-1.635-.971-2.861-.97-1.278-2.606-1.278-1.738 0-3.015 1.482-1.278 1.482-2.146 3.935-.818 2.402-1.227 5.519-.409 3.066-.409 6.285 0 4.242.665 7.103.715 2.862 1.89 4.6 1.176 1.737 2.76 2.452 1.635.716 3.475.716 2.913 0 5.212-1.431 2.351-1.482 3.629-3.935z"/><path d="M35.872 41.11q3.526 0 5.621 1.943 2.095 1.89 2.708 6.132h.358q.716 0 1.584-.256.92-.255 1.891-.664t1.89-.97q.92-.563 1.636-1.176l.767 1.38q-.563.817-1.431 1.481-.818.665-1.891 1.227-1.073.51-2.249.92-1.175.357-2.35.562.05.358.05.715v.665q0 2.964-.51 5.57-.511 2.555-1.738 4.497-1.175 1.89-3.066 3.015-1.89 1.073-4.65 1.073-1.89 0-3.628-.562-1.687-.614-3.015-1.942-1.329-1.38-2.146-3.577-.767-2.249-.767-5.468 0-2.198.46-4.702.46-2.555 1.686-4.752 1.227-2.198 3.322-3.628 2.146-1.482 5.468-1.482zm.05 21.31q1.074 0 1.84-.715.818-.766 1.33-2.044.51-1.329.715-3.117.255-1.789.255-3.884v-.766q-1.277-.256-1.635-.971-.358-.716-.358-1.584 0-1.074.358-1.636.358-.562.92-.766-.562-1.738-1.38-2.249-.766-.51-1.329-.51-1.124 0-1.941 1.072-.767 1.022-1.278 2.658-.511 1.584-.767 3.526-.204 1.941-.204 3.73 0 2.3.307 3.73.357 1.431.868 2.198t1.125 1.073q.613.255 1.175.255z"/><path d="M73.893 51.484q0-3.066-.715-4.343-.716-1.329-1.942-1.329-1.482 0-2.198 1.43-.664 1.38-.817 3.271v16.404h-7.359v-17.63q0-.614-.102-1.227-.102-.665-.358-1.124-.255-.512-.715-.818-.41-.358-1.073-.358-1.38 0-2.147 1.431-.715 1.38-.868 3.322v16.403h-7.36V41.365h7.36v2.657q1.226-1.84 2.708-2.35 1.533-.563 2.862-.563 1.89 0 3.526.92 1.635.92 2.657 3.475.613-1.38 1.38-2.249.817-.868 1.635-1.328.869-.46 1.686-.613.869-.154 1.636-.154 1.43 0 2.708.46 1.329.46 2.3 1.584 1.022 1.073 1.584 2.913.562 1.789.562 4.446 0 .664-.051 1.686 0 .971-.051 1.993t-.103 1.993v1.636q0 2.197.511 3.321.562 1.073 2.147 1.073.868 0 1.43-.306.563-.358.92-.971.358-.613.562-1.431.256-.818.46-1.789h2.147q-.41 3.015-1.227 4.906-.817 1.84-1.84 2.862t-2.248 1.38q-1.175.306-2.35.306-3.833 0-5.622-2.606-1.737-2.606-1.737-6.95V56.39q.05-.87.05-1.789v-1.788q.052-.87.052-1.33z"/><path d="M98.318 62.932q1.533 0 2.708-.41 1.176-.408 2.095-1.072.92-.716 1.687-1.636.766-.97 1.482-2.044h1.737q-.715 1.789-1.737 3.475-.971 1.687-2.453 3.015-1.43 1.329-3.373 2.147t-4.548.817q-2.197 0-4.037-.664t-3.22-2.044q-1.328-1.431-2.094-3.628-.716-2.249-.716-5.366 0-2.198.46-4.702.511-2.555 1.738-4.7 1.226-2.147 3.321-3.578 2.095-1.43 5.315-1.43 2.453 0 3.781.766 1.329.766 1.942 1.788.664 1.022.767 1.993.153.971.153 1.38 0 2.3-.869 4.037-.817 1.737-2.248 2.964-1.38 1.175-3.22 1.84-1.788.613-3.68.715.052 3.424 1.125 4.906 1.124 1.43 3.884 1.43zM99.39 47.09q0-1.788-.613-2.504-.613-.766-1.329-.766-.869 0-1.584.869-.715.817-1.278 2.248-.51 1.38-.868 3.27-.307 1.891-.41 3.935 1.278-.102 2.403-.664 1.124-.613 1.942-1.533.817-.97 1.277-2.197.46-1.227.46-2.658z"/><path d="M119.326 51.484q0-3.066-.716-4.343-.664-1.329-1.941-1.329-.767 0-1.33.409-.51.409-.868 1.073-.358.664-.562 1.533-.204.818-.256 1.686v16.404h-7.358V41.365h7.358v2.658q1.176-1.789 2.658-2.3 1.482-.562 2.81-.562 1.431 0 2.709.46 1.328.46 2.3 1.584 1.021 1.073 1.583 2.913.563 1.789.563 4.446 0 .664-.052 1.686 0 .971-.05 1.993t-.103 1.993v1.635q0 2.198.46 3.322.46 1.073 2.044 1.073 1.738 0 2.402-1.277.715-1.278 1.124-3.22h2.146q-.408 3.066-1.226 4.957-.818 1.84-1.84 2.862-1.022.97-2.197 1.328-1.175.307-2.3.307-3.934 0-5.723-2.606-1.737-2.606-1.737-6.95v-1.278q.05-.868.05-1.788v-1.738q.052-.868.052-1.38z"/><path d="M139.455 33.292v8.074h3.118v2.044h-3.118v15.33q0 2.147.562 2.862.614.664 2.096.664 1.482 0 2.452-1.277 1.022-1.278 1.176-3.22h2.146q-.409 3.118-1.43 5.008-1.023 1.84-2.3 2.862-1.278.971-2.606 1.278t-2.351.306q-3.935 0-5.52-2.146-1.583-2.197-1.583-5.774V43.409h-1.636v-2.044h1.636v-7.052z"/><path d="M166.793 41.366v17.375q0 2.146.562 2.861.614.665 2.095.665 1.482 0 2.453-1.278 1.022-1.278 1.176-3.22h2.146q-.409 3.118-1.43 5.009-1.023 1.84-2.3 2.861-1.278.971-2.607 1.278-1.328.306-2.35.306-2.709 0-4.14-1.226-1.38-1.278-1.941-3.475-.41.869-.971 1.737-.563.818-1.38 1.482-.767.665-1.84 1.074-1.022.408-2.402.408-1.635 0-3.22-.613-1.583-.613-2.912-1.993-1.277-1.38-2.095-3.628-.767-2.3-.767-5.621 0-2.351.511-4.855.563-2.504 1.687-4.6 1.175-2.094 3.015-3.423 1.89-1.38 4.548-1.38.613 0 1.329.103.715.05 1.38.357.664.256 1.226.818.562.511.869 1.43v-2.452zm-7.358 4.906q-.052-.204-.205-.51-.153-.359-.46-.665-.306-.358-.766-.562-.46-.256-1.073-.256-1.227 0-2.147 1.073-.868 1.022-1.43 2.607-.512 1.533-.767 3.423-.256 1.84-.256 3.526 0 2.709.41 4.242.408 1.482.97 2.197.613.665 1.278.818.664.102 1.124.102.562 0 1.124-.256.613-.306 1.073-.868.511-.562.818-1.38.307-.869.307-1.993z"/><path d="M179.978 41.366v3.169q1.124-1.33 2.504-2.351 1.38-1.073 3.015-1.073.97 0 1.737.409.818.408 1.38 1.073.613.664.92 1.482.358.766.358 1.584 0 1.124-.716 2.095-.664.92-2.248.92-1.176 0-1.636-.511-.46-.511-.715-1.073-.256-.614-.562-1.125-.256-.51-.971-.51-.767 0-1.533.613-.716.562-1.533 1.43v19.419h-7.359V41.366zM199.192 41.366v17.375q0 2.146.562 2.861.613.665 2.095.665 1.482 0 2.453-1.278 1.022-1.278 1.175-3.22h2.147q-.41 3.118-1.431 5.009-1.022 1.84-2.3 2.861-1.277.971-2.606 1.278-1.329.306-2.35.306-3.936 0-5.52-2.146-1.584-2.197-1.584-5.774V41.365zm-7.921-6.796q0-1.687 1.175-2.862 1.176-1.226 2.862-1.226 1.686 0 2.862 1.226 1.226 1.176 1.226 2.862t-1.226 2.862q-1.176 1.175-2.862 1.175-1.686 0-2.862-1.175-1.175-1.176-1.175-2.862z"/><path d="M215.544 41.11c2.113 0 3.833.529 5.162 1.585 1.328 1.022 2.528 3.042 2.861 4.906.413 2.303.357 2.208.46 3.321.033.357.103 1.772.103 2.147 0 1.976-.17 3.832-.511 5.57-.341 1.703-.92 3.202-1.738 4.497a8.952 8.952 0 0 1-3.066 3.015c-1.26.715-2.81 1.073-4.65 1.073-1.26 0-2.47-.188-3.629-.562a8.186 8.186 0 0 1-3.014-1.942c-.886-.92-1.602-2.112-2.147-3.577-.51-1.5-.766-3.322-.766-5.468 0-1.465.153-3.032.46-4.702a15.205 15.205 0 0 1 1.686-4.752 10.59 10.59 0 0 1 3.322-3.628c1.43-.988 3.253-1.482 5.468-1.482zm.052 21.31c.715 0 1.328-.238 1.84-.715.544-.51.987-1.192 1.328-2.044.34-.886.58-1.925.715-3.117.17-1.192.256-2.487.256-3.884 0 0 .016-.477 0-.715-.12-1.733-.104-3.536-.716-5.161-.294-.783-.834-1.789-1.38-2.096-.51-.34-.953-.51-1.328-.51-.75 0-1.397.357-1.942 1.073-.51.68-.937 1.567-1.277 2.657-.341 1.056-.596 2.231-.767 3.526a35.664 35.664 0 0 0-.204 3.73c0 1.533.102 2.777.306 3.73.239.954.528 1.687.87 2.198s.715.869 1.123 1.073c.41.17.8.256 1.176.256z"/></g></svg>