<svg xmlns="http://www.w3.org/2000/svg" width="933.333" height="933.333" viewBox="0 0 700 700"><path d="M320 25.1C188.6 34 74.5 100.2 28.4 194.5-4 260.9-.3 333.7 38.8 397.4c14.5 23.7 40.3 52.6 62.9 70.4 31.2 24.6 70.9 45.8 109.9 58.7 1.7.5 5.2 14.7 6.5 26.1 3.4 30-8.7 63.1-31.1 85.3-4.5 4.5-16.1 13.5-28.3 22.1-11.3 8-20.6 14.8-20.7 15.1 0 1 31.4 2.4 53 2.3 16.1 0 21.3-.4 29.8-2.2 41.1-8.9 75-30.3 99.3-62.7 12.5-16.8 21.8-35.8 27.1-55.4l2.1-8.1h9.6c12 0 33.9-1.6 49.6-3.6 107.5-13.7 199.9-65.2 249.6-139.2 35.1-52.4 46.1-112.1 31.4-170.3-11.9-46.7-42.4-92.6-84.5-127.2-73.4-60.1-177.9-90.8-285-83.6zm75 32.4c79 8.6 147.2 36.9 198.5 82.5 32.5 28.8 55.6 64.9 65.4 102.2 4.4 16.9 5.5 25.6 5.5 44.3 0 17.9-1 26.9-5 42.7-22.2 88.7-115.2 161-234.4 182.2-27.6 4.9-40.4 5.9-72.5 6l-29.9.1-1.8 12.5c-2.3 16.1-5.7 28-11.8 40.7-13 27.4-35.1 50-61.3 62.6-9.6 4.7-21.6 9.1-22.4 8.3-.3-.2.8-2.4 2.5-4.8 7.9-11.5 15.7-30.9 19.3-48.1 2.9-13.3 3.1-36.9.6-50.2-2-10.3-6.8-25.9-10-32.4l-2.2-4.4-15-5.2C123.7 463.3 57.9 398.7 40.8 320c-2-9.2-2.3-13.3-2.3-33.5 0-20.3.3-24.3 2.3-33.7 8.7-40.4 28.4-74.4 61.5-106.4C155.8 94.6 234.4 62.5 323.5 56c16.5-1.2 54-.4 71.5 1.5z"/><path d="M314 132.2c0 10.9 2 39.7 3.5 50.8.9 6.3 4.7 27.2 8.6 46.3 3.9 19.2 6.9 35.1 6.6 35.3-.3.3-14.6-7.2-31.9-16.7-17.2-9.5-36.7-19.8-43.3-23-20.2-9.7-49.2-20.7-50.5-19.2-.4.4-5.6 15.4-11.5 33.3s-11 33-11.2 33.6c-.5 1.3 24.7 9.9 40.2 13.8 18.6 4.6 33.6 6.5 85 10.6 7.7.7 14.1 1.3 14.2 1.4.2.2-5.9 5.6-13.5 12.2-32.1 27.8-53.8 48.6-66.1 63.4-7.3 8.8-19.1 24.7-19 25.7 0 .8 56.5 40.3 58.6 41 1.2.4 12-15.9 22.9-34.7 7.2-12.5 41.2-80.7 42.8-85.8.4-1.2 1.1-2.2 1.5-2.2.4 0 7.2 13.6 15.1 30.2 13.8 29.2 21.5 44.1 30.5 59.3 7.8 13.2 21 33.5 21.7 33.5.4 0 14.1-9.3 30.3-20.6l29.5-20.6-3.7-5.2c-19.7-27.4-38.1-46-91.7-92.4-2.1-1.8-3.7-3.5-3.5-3.7.2-.2 9.4-1.1 20.4-2 47.3-3.8 60.7-5.6 80.5-10.6 11.1-2.9 34.6-10.4 37-11.9.9-.6-1.9-10.1-10-34.6-6.2-18.7-11.4-34.1-11.6-34.3-.5-.6-17 5.4-30.9 11.1-15.9 6.6-33.8 15.7-63.5 32-28.5 15.7-31.1 17.1-31.5 16.6-.2-.2 0-2.1.5-4.3 2.7-11.8 14.2-75.3 15.5-85.3.9-6.4 1.9-19.9 2.2-30l.6-18.2H314v5.2z"/></svg>
