<?xml version="1.0" encoding="UTF-8" standalone="no"?>
<!-- Created with Inkscape (http://www.inkscape.org/) -->

<svg
   width="360"
   height="450"
   viewBox="0 0 95.25 119.0625"
   version="1.1"
   id="svg5"
   sodipodi:docname="comentario-schematics.svg"
   xml:space="preserve"
   inkscape:version="1.2.2 (b0a8486541, 2022-12-01)"
   xmlns:inkscape="http://www.inkscape.org/namespaces/inkscape"
   xmlns:sodipodi="http://sodipodi.sourceforge.net/DTD/sodipodi-0.dtd"
   xmlns:xlink="http://www.w3.org/1999/xlink"
   xmlns="http://www.w3.org/2000/svg"
   xmlns:svg="http://www.w3.org/2000/svg"><sodipodi:namedview
     id="namedview7"
     pagecolor="#ffffff"
     bordercolor="#666666"
     borderopacity="1.0"
     inkscape:showpageshadow="2"
     inkscape:pageopacity="0.0"
     inkscape:pagecheckerboard="0"
     inkscape:deskcolor="#d1d1d1"
     inkscape:document-units="px"
     showgrid="false"
     inkscape:zoom="1"
     inkscape:cx="278"
     inkscape:cy="107"
     inkscape:window-width="1920"
     inkscape:window-height="1011"
     inkscape:window-x="1920"
     inkscape:window-y="32"
     inkscape:window-maximized="1"
     inkscape:current-layer="layer1" /><defs
     id="defs2"><clipPath
       clipPathUnits="userSpaceOnUse"
       id="clipPath1374"><g
         id="g1378"><rect
           width="211.66667"
           height="211.66667"
           fill="#ffffff"
           id="rect1376"
           x="-38.855053"
           y="7.627141"
           style="stroke-width:8.81944" /></g></clipPath><clipPath
       clipPathUnits="userSpaceOnUse"
       id="clipPath1380"><g
         id="g1384"><rect
           width="211.66667"
           height="211.66667"
           fill="#ffffff"
           id="rect1382"
           x="-38.855053"
           y="7.627141"
           style="stroke-width:8.81944" /></g></clipPath></defs><g
     inkscape:label="Layer 1"
     inkscape:groupmode="layer"
     id="layer1"
     transform="translate(-47.48707,-70.163472)"><rect
       style="fill:#ffffff;fill-opacity:1;stroke:none;stroke-width:0.396729;stroke-dasharray:1.58691, 0.396729;-inkscape-stroke:none;paint-order:fill markers stroke;stop-color:#000000"
       id="rect299"
       width="95.25"
       height="119.0625"
       x="47.487068"
       y="70.163475" /><path
       style="display:inline;fill:none;fill-rule:evenodd;stroke:#aa0000;stroke-width:0.79375;stroke-linecap:butt;stroke-linejoin:miter;stroke-dasharray:none;stroke-opacity:1"
       d="m 69.921943,93.434237 18.595116,-0.81348"
       id="path6260"
       inkscape:connector-type="polyline"
       inkscape:connector-curvature="0"
       inkscape:connection-start="#g1327"
       inkscape:connection-end="#rect1874" /><path
       style="display:inline;fill:none;fill-rule:evenodd;stroke:#aa0000;stroke-width:0.79375;stroke-linecap:butt;stroke-linejoin:miter;stroke-dasharray:none;stroke-opacity:1"
       d="m 107.23736,100.98956 -8.292941,14.17382"
       id="path1719"
       inkscape:connector-type="polyline"
       inkscape:connector-curvature="0"
       inkscape:connection-end="#path1345"
       inkscape:connection-start="#rect1874" /><path
       style="display:inline;fill:none;fill-rule:evenodd;stroke:#aa0000;stroke-width:0.79375;stroke-linecap:butt;stroke-linejoin:miter;stroke-dasharray:none;stroke-opacity:1"
       d="M 90.418033,130.97954 73.365707,165.32773"
       id="path3743"
       inkscape:connector-type="polyline"
       inkscape:connector-curvature="0"
       inkscape:connection-end="#g3244"
       inkscape:connection-start="#path1345" /><path
       style="display:inline;fill:none;fill-rule:evenodd;stroke:#aa0000;stroke-width:0.79375;stroke-linecap:butt;stroke-linejoin:miter;stroke-dasharray:none;stroke-opacity:1"
       d="m 97.968931,130.97954 14.547729,34.34819"
       id="path3745"
       inkscape:connector-type="polyline"
       inkscape:connector-curvature="0"
       inkscape:connection-end="#g3687"
       inkscape:connection-start="#path1345" /><path
       d="m 18.471336,166.37714 h 57.326388 52.916666 c 14.95866,-2.14048 26.45833,-15.31761 26.45833,-30.86806 0,-15.79033 -11.85686,-28.81224 -27.1533,-30.64668 -4.10722,-25.136301 -25.92388,-44.318592 -52.221696,-44.318592 -20.180652,0 -37.722792,11.296826 -46.647717,27.911777 -3.397691,-0.947208 -6.979003,-1.453444 -10.678671,-1.453444 -21.9187892,0 -39.6875,17.768539 -39.6875,39.687499 0,21.91897 17.7687108,39.6875 39.6875,39.6875 z"
       stroke="#000000"
       stroke-linecap="round"
       stroke-linejoin="round"
       id="path1345"
       style="fill:#000080;fill-opacity:0.161445;stroke:#000080;stroke-width:1.5407;stroke-dasharray:none"
       clip-path="url(#clipPath1374)"
       transform="matrix(0.15510373,0,0,0.15510373,84.104141,105.17382)" /><text
       xml:space="preserve"
       style="font-style:normal;font-variant:normal;font-weight:normal;font-stretch:normal;font-size:5.64444px;line-height:1.25;font-family:'Noto Sans Adlam Unjoined';-inkscape-font-specification:'Noto Sans Adlam Unjoined, Normal';font-variant-ligatures:normal;font-variant-caps:normal;font-variant-numeric:normal;font-variant-east-asian:normal;fill:#008080;fill-opacity:1;stroke:none;stroke-width:0.264583"
       x="83.93763"
       y="127.56078"
       id="text1388"><tspan
         sodipodi:role="line"
         id="tspan1386"
         style="font-style:normal;font-variant:normal;font-weight:normal;font-stretch:normal;font-size:5.64444px;font-family:Ubuntu;-inkscape-font-specification:'Ubuntu, Normal';font-variant-ligatures:normal;font-variant-caps:normal;font-variant-numeric:normal;font-variant-east-asian:normal;fill:#008080;fill-opacity:1;stroke-width:0.264583"
         x="83.93763"
         y="127.56078">Internet</tspan></text><rect
       style="font-variation-settings:normal;opacity:1;vector-effect:none;fill:#ffffff;fill-opacity:0.7;stroke:#000000;stroke-width:0.529167;stroke-linecap:butt;stroke-linejoin:miter;stroke-miterlimit:4;stroke-dasharray:2.11667, 0.529167;stroke-dashoffset:0;stroke-opacity:1;-inkscape-stroke:none;stop-color:#000000;stop-opacity:1"
       id="rect788"
       width="88.494858"
       height="30.102137"
       x="50.36808"
       y="72.867302"
       ry="4.3245373" /><text
       xml:space="preserve"
       style="font-style:normal;font-variant:normal;font-weight:normal;font-stretch:normal;font-size:5.64444px;line-height:1.25;font-family:'Noto Sans Adlam Unjoined';-inkscape-font-specification:'Noto Sans Adlam Unjoined, Normal';font-variant-ligatures:normal;font-variant-caps:normal;font-variant-numeric:normal;font-variant-east-asian:normal;fill:#000000;fill-opacity:1;stroke:none;stroke-width:0.264583"
       x="94.590118"
       y="78.675514"
       id="text844"><tspan
         sodipodi:role="line"
         id="tspan842"
         style="font-style:normal;font-variant:normal;font-weight:bold;font-stretch:normal;font-size:5.64444px;font-family:Ubuntu;-inkscape-font-specification:'Ubuntu, Normal';font-variant-ligatures:normal;font-variant-caps:normal;font-variant-numeric:normal;font-variant-east-asian:normal;text-align:center;text-anchor:middle;fill:#008080;stroke-width:0.264583"
         x="94.590118"
         y="78.675514">Backend</tspan></text><g
       style="fill:#000000"
       id="g1327"
       transform="matrix(0.227054,0,0,0.227054,58.001608,87.438575)"><path
         d="M 52.354,8.51 C 51.196,4.22 42.577,0 27.5,0 12.423,0 3.803,4.22 2.646,8.51 2.562,8.657 2.5,8.818 2.5,9 V 9.5 21 21.5 22 33 33.5 34 46 c 0,0.162 0.043,0.315 0.117,0.451 C 3.798,51.346 14.364,55 27.5,55 40.606,55 51.155,51.361 52.375,46.484 52.455,46.341 52.5,46.176 52.5,46 V 34 33.5 33 22 21.5 21 9.5 9 c 0,-0.182 -0.062,-0.343 -0.146,-0.49 z m -1.933,25.475 c -0.028,0.121 -0.067,0.241 -0.116,0.363 -0.04,0.099 -0.089,0.198 -0.143,0.297 -0.067,0.123 -0.142,0.246 -0.231,0.369 -0.066,0.093 -0.141,0.185 -0.219,0.277 -0.111,0.131 -0.229,0.262 -0.363,0.392 -0.081,0.079 -0.17,0.157 -0.26,0.236 -0.164,0.143 -0.335,0.285 -0.526,0.426 -0.082,0.061 -0.17,0.12 -0.257,0.18 -0.226,0.156 -0.462,0.311 -0.721,0.463 -0.068,0.041 -0.141,0.08 -0.212,0.12 -0.298,0.168 -0.609,0.335 -0.945,0.497 -0.043,0.021 -0.088,0.041 -0.132,0.061 -0.375,0.177 -0.767,0.351 -1.186,0.519 -0.012,0.005 -0.024,0.009 -0.036,0.014 -2.271,0.907 -5.176,1.67 -8.561,2.17 -0.017,0.002 -0.034,0.004 -0.051,0.007 -0.658,0.097 -1.333,0.183 -2.026,0.259 -0.113,0.012 -0.232,0.02 -0.346,0.032 -0.605,0.063 -1.217,0.121 -1.847,0.167 -0.288,0.021 -0.59,0.031 -0.883,0.049 -0.474,0.028 -0.943,0.059 -1.429,0.076 C 29.137,40.984 28.327,41 27.5,41 26.673,41 25.863,40.984 25.068,40.956 24.582,40.939 24.113,40.907 23.639,40.88 23.346,40.863 23.044,40.852 22.756,40.831 22.126,40.785 21.514,40.727 20.909,40.664 20.795,40.652 20.676,40.644 20.563,40.632 19.87,40.556 19.195,40.469 18.537,40.373 18.52,40.371 18.503,40.369 18.486,40.366 15.101,39.866 12.196,39.103 9.925,38.196 9.913,38.192 9.901,38.187 9.889,38.182 9.47,38.014 9.077,37.84 8.703,37.663 8.66,37.642 8.614,37.622 8.571,37.602 8.235,37.44 7.924,37.274 7.626,37.105 7.556,37.065 7.482,37.026 7.414,36.985 7.155,36.833 6.919,36.678 6.693,36.522 6.607,36.462 6.518,36.403 6.436,36.342 6.245,36.201 6.074,36.059 5.91,35.916 5.821,35.838 5.731,35.76 5.65,35.68 5.516,35.55 5.398,35.42 5.287,35.288 5.209,35.196 5.134,35.104 5.068,35.011 4.98,34.888 4.905,34.765 4.837,34.642 4.783,34.543 4.735,34.444 4.694,34.345 4.645,34.224 4.606,34.103 4.578,33.982 4.541,33.823 4.5,33.661 4.5,33.5 4.5,33.387 4.513,33.274 4.531,33.162 4.556,33.011 4.542,32.86 4.5,32.717 v -7.424 c 0.028,0.026 0.063,0.051 0.092,0.077 0.218,0.192 0.44,0.383 0.69,0.567 C 9.049,28.786 16.582,31 27.5,31 c 10.872,0 18.386,-2.196 22.169,-5.028 0.302,-0.22 0.574,-0.447 0.83,-0.678 L 50.5,25.293 v 7.424 c -0.042,0.143 -0.056,0.294 -0.031,0.445 0.019,0.112 0.031,0.225 0.031,0.338 0,0.161 -0.041,0.323 -0.079,0.485 z M 50.5,13.293 v 7.424 c -0.042,0.143 -0.056,0.294 -0.031,0.445 0.019,0.112 0.031,0.225 0.031,0.338 0,0.161 -0.041,0.323 -0.079,0.485 -0.028,0.121 -0.067,0.241 -0.116,0.363 -0.04,0.099 -0.089,0.198 -0.143,0.297 -0.067,0.123 -0.142,0.246 -0.231,0.369 -0.066,0.093 -0.141,0.185 -0.219,0.277 -0.111,0.131 -0.229,0.262 -0.363,0.392 -0.081,0.079 -0.17,0.157 -0.26,0.236 -0.164,0.143 -0.335,0.285 -0.526,0.426 -0.082,0.061 -0.17,0.12 -0.257,0.18 -0.226,0.156 -0.462,0.311 -0.721,0.463 -0.068,0.041 -0.141,0.08 -0.212,0.12 -0.298,0.168 -0.609,0.335 -0.945,0.497 -0.043,0.021 -0.088,0.041 -0.132,0.061 -0.375,0.177 -0.767,0.351 -1.186,0.519 -0.012,0.005 -0.024,0.009 -0.036,0.014 -2.271,0.907 -5.176,1.67 -8.561,2.17 -0.017,0.002 -0.034,0.004 -0.051,0.007 -0.658,0.097 -1.333,0.183 -2.026,0.259 -0.113,0.012 -0.232,0.02 -0.346,0.032 -0.605,0.063 -1.217,0.121 -1.847,0.167 -0.288,0.021 -0.59,0.031 -0.883,0.049 -0.474,0.028 -0.943,0.059 -1.429,0.076 C 29.137,28.984 28.327,29 27.5,29 26.673,29 25.863,28.984 25.068,28.956 24.582,28.939 24.113,28.907 23.639,28.88 23.346,28.863 23.044,28.852 22.756,28.831 22.126,28.785 21.514,28.727 20.909,28.664 20.795,28.652 20.676,28.644 20.563,28.632 19.87,28.556 19.195,28.469 18.537,28.373 18.52,28.371 18.503,28.369 18.486,28.366 15.101,27.866 12.196,27.103 9.925,26.196 9.913,26.192 9.901,26.187 9.889,26.182 9.47,26.014 9.077,25.84 8.703,25.663 8.66,25.642 8.614,25.622 8.571,25.602 8.235,25.44 7.924,25.274 7.626,25.105 7.556,25.065 7.482,25.026 7.414,24.985 7.155,24.833 6.919,24.678 6.693,24.522 6.607,24.462 6.518,24.403 6.436,24.342 6.245,24.201 6.074,24.059 5.91,23.916 5.821,23.838 5.731,23.76 5.65,23.68 5.516,23.55 5.398,23.42 5.287,23.288 5.209,23.196 5.134,23.104 5.068,23.011 4.98,22.888 4.905,22.765 4.837,22.642 4.783,22.543 4.735,22.444 4.694,22.345 4.645,22.224 4.606,22.103 4.578,21.982 4.541,21.823 4.5,21.661 4.5,21.5 4.5,21.387 4.513,21.274 4.531,21.162 4.556,21.011 4.542,20.86 4.5,20.717 v -7.424 c 0.12,0.109 0.257,0.216 0.387,0.324 0.072,0.06 0.139,0.12 0.215,0.18 0.3,0.236 0.624,0.469 0.975,0.696 0.073,0.047 0.155,0.093 0.231,0.14 0.294,0.183 0.605,0.362 0.932,0.538 0.121,0.065 0.242,0.129 0.367,0.193 0.365,0.186 0.748,0.367 1.151,0.542 0.066,0.029 0.126,0.059 0.193,0.087 0.469,0.199 0.967,0.389 1.485,0.573 0.143,0.051 0.293,0.099 0.44,0.149 0.412,0.139 0.838,0.272 1.279,0.401 0.159,0.046 0.315,0.094 0.478,0.138 0.585,0.162 1.189,0.316 1.823,0.458 0.087,0.02 0.181,0.036 0.269,0.055 0.559,0.122 1.139,0.235 1.735,0.341 0.202,0.036 0.407,0.07 0.613,0.104 0.567,0.093 1.151,0.178 1.75,0.256 0.154,0.02 0.301,0.043 0.457,0.062 0.744,0.09 1.514,0.167 2.305,0.233 0.195,0.016 0.398,0.028 0.596,0.042 0.633,0.046 1.28,0.084 1.942,0.114 0.241,0.011 0.481,0.022 0.727,0.031 0.862,0.029 1.74,0.05 2.65,0.05 0.91,0 1.788,-0.021 2.65,-0.05 0.245,-0.009 0.485,-0.02 0.727,-0.031 0.662,-0.03 1.309,-0.068 1.942,-0.114 0.198,-0.015 0.4,-0.026 0.596,-0.042 0.791,-0.065 1.561,-0.143 2.305,-0.233 0.156,-0.019 0.303,-0.042 0.457,-0.062 0.599,-0.078 1.182,-0.163 1.75,-0.256 0.206,-0.034 0.411,-0.068 0.613,-0.104 0.596,-0.106 1.176,-0.219 1.735,-0.341 0.088,-0.019 0.182,-0.036 0.269,-0.055 0.634,-0.142 1.238,-0.297 1.823,-0.458 0.163,-0.045 0.319,-0.092 0.478,-0.138 0.441,-0.129 0.867,-0.262 1.279,-0.401 0.147,-0.05 0.297,-0.098 0.44,-0.149 0.518,-0.184 1.017,-0.374 1.485,-0.573 0.067,-0.028 0.127,-0.058 0.193,-0.087 0.403,-0.176 0.786,-0.356 1.151,-0.542 0.125,-0.064 0.247,-0.128 0.367,-0.193 0.327,-0.175 0.638,-0.354 0.932,-0.538 0.076,-0.047 0.158,-0.093 0.231,-0.14 0.351,-0.227 0.675,-0.459 0.975,-0.696 0.075,-0.06 0.142,-0.12 0.215,-0.18 0.13,-0.108 0.267,-0.215 0.387,-0.324 z M 27.5,2 c 13.555,0 23,3.952 23,7.5 0,3.548 -9.445,7.5 -23,7.5 C 13.945,17 4.5,13.048 4.5,9.5 4.5,5.952 13.945,2 27.5,2 Z m 23,43.703 c -0.014,0.044 -0.024,0.089 -0.032,0.135 C 49.901,49.297 40.536,53 27.5,53 14.464,53 5.099,49.297 4.532,45.838 4.524,45.793 4.513,45.749 4.5,45.707 v -8.414 c 0.028,0.026 0.063,0.051 0.092,0.077 0.218,0.192 0.44,0.383 0.69,0.567 C 9.049,40.786 16.582,43 27.5,43 c 10.872,0 18.386,-2.196 22.169,-5.028 0.302,-0.22 0.574,-0.447 0.83,-0.678 L 50.5,37.293 Z"
         id="path1319" /></g><text
       xml:space="preserve"
       style="font-style:normal;font-variant:normal;font-weight:normal;font-stretch:normal;font-size:4.23333px;line-height:1.25;font-family:'Noto Sans Adlam Unjoined';-inkscape-font-specification:'Noto Sans Adlam Unjoined, Normal';font-variant-ligatures:normal;font-variant-caps:normal;font-variant-numeric:normal;font-variant-east-asian:normal;fill:#000000;fill-opacity:1;stroke:none;stroke-width:0.105833;stroke-dasharray:none;stroke-opacity:1;paint-order:fill markers stroke"
       x="55.266705"
       y="86.136742"
       id="text1331"><tspan
         sodipodi:role="line"
         id="tspan1329"
         style="font-style:normal;font-variant:normal;font-weight:normal;font-stretch:normal;font-size:4.23333px;font-family:Ubuntu;-inkscape-font-specification:'Ubuntu, Normal';font-variant-ligatures:normal;font-variant-caps:normal;font-variant-numeric:normal;font-variant-east-asian:normal;fill:#008080;stroke:none;stroke-width:0.105833;stroke-dasharray:none;stroke-opacity:1;paint-order:fill markers stroke"
         x="55.266705"
         y="86.136742">Database</tspan></text><rect
       style="fill:none;stroke:#000000;stroke-width:0.264583;stroke-dasharray:none;stroke-opacity:1"
       id="rect1874"
       width="48.474331"
       height="18.858213"
       x="88.517059"
       y="82.131348"
       ry="1.9375933" /><text
       xml:space="preserve"
       style="font-style:normal;font-variant:normal;font-weight:normal;font-stretch:normal;font-size:4.23333px;line-height:1.25;font-family:'Noto Sans Adlam Unjoined';-inkscape-font-specification:'Noto Sans Adlam Unjoined, Normal';font-variant-ligatures:normal;font-variant-caps:normal;font-variant-numeric:normal;font-variant-east-asian:normal;fill:#000000;fill-opacity:1;stroke:none;stroke-width:0.105833;stroke-dasharray:none;stroke-opacity:1;paint-order:fill markers stroke"
       x="95.020813"
       y="87.041626"
       id="text2656"><tspan
         sodipodi:role="line"
         id="tspan2654"
         style="font-style:normal;font-variant:normal;font-weight:normal;font-stretch:normal;font-size:4.23333px;font-family:Ubuntu;-inkscape-font-specification:'Ubuntu, Normal';font-variant-ligatures:normal;font-variant-caps:normal;font-variant-numeric:normal;font-variant-east-asian:normal;fill:#008080;stroke:none;stroke-width:0.105833;stroke-dasharray:none;stroke-opacity:1;paint-order:fill markers stroke"
         x="95.020813"
         y="87.041626">Comentario server</tspan></text><g
       id="g2695"
       transform="matrix(0.09548872,0,0,0.09548872,106.28648,87.542872)"><path
         style="fill:#ffffff;stroke:#4950d8;stroke-width:6"
         d="m 67.733,7.646 a 63.5,47.625 0 0 1 63.5,47.625 63.5,47.625 0 0 1 -63.5,47.625 63.5,47.625 0 0 1 -2.886,-0.077 28.66,28.66 0 0 1 -28.4,25.001 28.66,28.66 0 0 1 -1.301,-0.044 23.758,23.758 0 0 0 10.036,-19.37 A 23.758,23.758 0 0 0 43.278,99.19 63.5,47.625 0 0 1 4.233,55.271 63.5,47.625 0 0 1 67.733,7.646 Z"
         id="path2683" /><path
         d="m 74.891,25.738 q 0,6.68 -1.272,12.884 -1.114,6.044 -2.386,12.566 5.726,-3.182 11.293,-6.204 5.567,-3.022 12.089,-5.249 l 0.954,-0.318 4.454,13.361 -1.273,0.477 q -6.362,2.386 -12.725,3.182 -6.362,0.636 -13.043,1.113 5.25,4.454 9.862,8.748 4.613,4.136 8.59,9.703 l 0.795,1.113 -11.612,8.113 -0.636,-0.955 q -3.817,-5.726 -6.68,-11.293 -2.705,-5.726 -5.568,-11.77 -2.863,6.044 -5.726,11.77 -2.704,5.567 -6.521,11.293 l -0.637,0.955 -11.611,-8.113 0.795,-1.113 q 3.977,-5.567 8.59,-9.703 4.612,-4.294 9.861,-8.748 -6.68,-0.477 -13.043,-1.113 -6.362,-0.796 -12.724,-3.182 l -1.273,-0.477 4.454,-13.36 0.954,0.317 q 6.522,2.227 12.089,5.25 5.567,3.021 11.293,6.203 Q 62.962,44.666 61.689,38.622 60.576,32.419 60.576,25.738 V 24.466 H 74.89 Z"
         style="fill:#ec8100"
         id="path2685" /></g><rect
       style="fill:#ffffff;fill-opacity:0.7;stroke:#000000;stroke-width:0.529167;stroke-dasharray:2.11667, 0.529167;stroke-dashoffset:0;stroke-opacity:1"
       id="rect2813"
       width="89.488586"
       height="40.202"
       x="50.36808"
       y="146.32018"
       ry="4.3245373" /><text
       xml:space="preserve"
       style="font-style:normal;font-variant:normal;font-weight:normal;font-stretch:normal;font-size:5.64444px;line-height:1.25;font-family:'Noto Sans Adlam Unjoined';-inkscape-font-specification:'Noto Sans Adlam Unjoined, Normal';font-variant-ligatures:normal;font-variant-caps:normal;font-variant-numeric:normal;font-variant-east-asian:normal;fill:#000000;fill-opacity:1;stroke:none;stroke-width:0.264583"
       x="94.590118"
       y="152.12839"
       id="text2817"><tspan
         sodipodi:role="line"
         id="tspan2815"
         style="font-style:normal;font-variant:normal;font-weight:bold;font-stretch:normal;font-size:5.64444px;font-family:Ubuntu;-inkscape-font-specification:'Ubuntu, Normal';font-variant-ligatures:normal;font-variant-caps:normal;font-variant-numeric:normal;font-variant-east-asian:normal;text-align:center;text-anchor:middle;fill:#008080;stroke-width:0.264583"
         x="94.590118"
         y="152.12839">Frontends</tspan></text><g
       id="g3244"
       transform="matrix(0.68689819,0,0,0.68689819,58.624183,161.89324)"
       style="fill:none;stroke-width:0.770371;stroke-dasharray:none"><rect
         x="3"
         y="5"
         class="st0"
         width="26"
         height="22"
         id="rect3223"
         style="fill:none;stroke-width:0.770371;stroke-dasharray:none" /><line
         class="st0"
         x1="13"
         y1="8"
         x2="13"
         y2="8"
         id="line3225"
         style="fill:none;stroke-width:0.770371;stroke-dasharray:none" /><line
         class="st0"
         x1="10"
         y1="8"
         x2="10"
         y2="8"
         id="line3227"
         style="fill:none;stroke-width:0.770371;stroke-dasharray:none" /><line
         class="st0"
         x1="7"
         y1="8"
         x2="7"
         y2="8"
         id="line3229"
         style="fill:none;stroke-width:0.770371;stroke-dasharray:none" /><line
         class="st0"
         x1="3"
         y1="11"
         x2="29"
         y2="11"
         id="line3231"
         style="fill:none;stroke-width:0.770371;stroke-dasharray:none" /></g><text
       xml:space="preserve"
       style="font-style:normal;font-variant:normal;font-weight:normal;font-stretch:normal;font-size:4.23333px;line-height:1.25;font-family:'Noto Sans Adlam Unjoined';-inkscape-font-specification:'Noto Sans Adlam Unjoined, Normal';font-variant-ligatures:normal;font-variant-caps:normal;font-variant-numeric:normal;font-variant-east-asian:normal;fill:#000000;fill-opacity:1;stroke:none;stroke-width:0.105833;stroke-dasharray:none;stroke-opacity:1;paint-order:fill markers stroke"
       x="53.201939"
       y="162.7961"
       id="text3623"><tspan
         sodipodi:role="line"
         id="tspan3621"
         style="font-style:normal;font-variant:normal;font-weight:normal;font-stretch:normal;font-size:4.23333px;font-family:Ubuntu;-inkscape-font-specification:'Ubuntu, Normal';font-variant-ligatures:normal;font-variant-caps:normal;font-variant-numeric:normal;font-variant-east-asian:normal;fill:#008080;stroke:none;stroke-width:0.105833;stroke-dasharray:none;stroke-opacity:1;paint-order:fill markers stroke"
         x="53.201939"
         y="162.7961">Administration UI</tspan></text><g
       id="g3687"
       transform="matrix(0.68689819,0,0,0.68689819,104.72648,161.89324)"
       style="fill:none;stroke-width:0.770371;stroke-dasharray:none"><rect
         x="3"
         y="5"
         class="st0"
         width="26"
         height="22"
         id="rect3677"
         style="fill:none;stroke-width:0.770371;stroke-dasharray:none" /><line
         class="st0"
         x1="13"
         y1="8"
         x2="13"
         y2="8"
         id="line3679"
         style="fill:none;stroke-width:0.770371;stroke-dasharray:none" /><line
         class="st0"
         x1="10"
         y1="8"
         x2="10"
         y2="8"
         id="line3681"
         style="fill:none;stroke-width:0.770371;stroke-dasharray:none" /><line
         class="st0"
         x1="7"
         y1="8"
         x2="7"
         y2="8"
         id="line3683"
         style="fill:none;stroke-width:0.770371;stroke-dasharray:none" /><line
         class="st0"
         x1="3"
         y1="11"
         x2="29"
         y2="11"
         id="line3685"
         style="fill:none;stroke-width:0.770371;stroke-dasharray:none" /></g><text
       xml:space="preserve"
       style="font-style:normal;font-variant:normal;font-weight:normal;font-stretch:normal;font-size:4.23333px;line-height:1.25;font-family:'Noto Sans Adlam Unjoined';-inkscape-font-specification:'Noto Sans Adlam Unjoined, Normal';font-variant-ligatures:normal;font-variant-caps:normal;font-variant-numeric:normal;font-variant-east-asian:normal;fill:#000000;fill-opacity:1;stroke:none;stroke-width:0.105833;stroke-dasharray:none;stroke-opacity:1;paint-order:fill markers stroke"
       x="94.827492"
       y="162.7961"
       id="text3691"><tspan
         sodipodi:role="line"
         id="tspan3689"
         style="font-style:normal;font-variant:normal;font-weight:normal;font-stretch:normal;font-size:4.23333px;font-family:Ubuntu;-inkscape-font-specification:'Ubuntu, Normal';font-variant-ligatures:normal;font-variant-caps:normal;font-variant-numeric:normal;font-variant-east-asian:normal;fill:#008080;stroke:none;stroke-width:0.105833;stroke-dasharray:none;stroke-opacity:1;paint-order:fill markers stroke"
         x="94.827492"
         y="162.7961">Embedded comments</tspan></text><g
       id="g4228"
       transform="matrix(0.07090964,0,0,0.07090964,65.558523,170.47574)"><polygon
         class="st0"
         points="57.2,122.88 105.68,96.03 114.4,20.4 57.2,0 0,20.4 8.72,96.03 "
         id="polygon4222" /><polygon
         class="st1"
         points="57.2,75.82 57.2,122.88 105.68,96.03 114.4,20.4 57.2,0 57.2,13.64 57.2,13.58 "
         id="polygon4224" /><path
         class="st2"
         d="M 57.2,13.58 21.44,93.76 v 0 h 13.33 v 0 l 7.19,-17.94 h 30.35 l 7.19,17.94 v 0 h 13.33 v 0 z M 67.65,64.76 H 46.76 L 57.2,39.63 Z"
         id="path4226" /></g><text
       xml:space="preserve"
       style="font-style:normal;font-variant:normal;font-weight:normal;font-stretch:normal;font-size:3.52778px;line-height:1;font-family:'Noto Sans Adlam Unjoined';-inkscape-font-specification:'Noto Sans Adlam Unjoined, Normal';font-variant-ligatures:normal;font-variant-caps:normal;font-variant-numeric:normal;font-variant-east-asian:normal;fill:#aa0000;fill-opacity:1;stroke:none;stroke-width:0.105833;stroke-dasharray:none;stroke-opacity:1;paint-order:fill markers stroke"
       x="100.17191"
       y="133.99387"
       id="text4674"><tspan
         sodipodi:role="line"
         id="tspan4672"
         style="font-style:normal;font-variant:normal;font-weight:normal;font-stretch:normal;font-size:3.52778px;font-family:Ubuntu;-inkscape-font-specification:'Ubuntu, Normal';font-variant-ligatures:normal;font-variant-caps:normal;font-variant-numeric:normal;font-variant-east-asian:normal;fill:#aa0000;stroke:none;stroke-width:0.105833;stroke-dasharray:none;stroke-opacity:1;paint-order:fill markers stroke"
         x="100.17191"
         y="133.99387">comentario.js</tspan><tspan
         sodipodi:role="line"
         style="font-style:normal;font-variant:normal;font-weight:normal;font-stretch:normal;font-size:3.52778px;font-family:Ubuntu;-inkscape-font-specification:'Ubuntu, Normal';font-variant-ligatures:normal;font-variant-caps:normal;font-variant-numeric:normal;font-variant-east-asian:normal;fill:#aa0000;stroke:none;stroke-width:0.105833;stroke-dasharray:none;stroke-opacity:1;paint-order:fill markers stroke"
         x="100.17191"
         y="137.68578"
         id="tspan4676">  comentario.css</tspan><tspan
         sodipodi:role="line"
         style="font-style:normal;font-variant:normal;font-weight:normal;font-stretch:normal;font-size:3.52778px;font-family:Ubuntu;-inkscape-font-specification:'Ubuntu, Normal';font-variant-ligatures:normal;font-variant-caps:normal;font-variant-numeric:normal;font-variant-east-asian:normal;fill:#aa0000;stroke:none;stroke-width:0.105833;stroke-dasharray:none;stroke-opacity:1;paint-order:fill markers stroke"
         x="100.17191"
         y="141.37769"
         id="tspan4678">    messages</tspan><tspan
         sodipodi:role="line"
         style="font-style:normal;font-variant:normal;font-weight:normal;font-stretch:normal;font-size:3.52778px;font-family:Ubuntu;-inkscape-font-specification:'Ubuntu, Normal';font-variant-ligatures:normal;font-variant-caps:normal;font-variant-numeric:normal;font-variant-east-asian:normal;fill:#aa0000;stroke:none;stroke-width:0.105833;stroke-dasharray:none;stroke-opacity:1;paint-order:fill markers stroke"
         x="100.17191"
         y="145.0696"
         id="tspan9317">      REST API calls</tspan></text><text
       xml:space="preserve"
       style="font-style:normal;font-variant:normal;font-weight:normal;font-stretch:normal;font-size:3.52778px;line-height:1;font-family:'Noto Sans Adlam Unjoined';-inkscape-font-specification:'Noto Sans Adlam Unjoined, Normal';font-variant-ligatures:normal;font-variant-caps:normal;font-variant-numeric:normal;font-variant-east-asian:normal;text-align:end;text-anchor:end;fill:#aa0000;fill-opacity:1;stroke:none;stroke-width:0.105833;stroke-dasharray:none;stroke-opacity:1;paint-order:fill markers stroke"
       x="85.836098"
       y="136.42804"
       id="text4686"><tspan
         sodipodi:role="line"
         style="font-style:normal;font-variant:normal;font-weight:normal;font-stretch:normal;font-size:3.52778px;font-family:Ubuntu;-inkscape-font-specification:'Ubuntu, Normal';font-variant-ligatures:normal;font-variant-caps:normal;font-variant-numeric:normal;font-variant-east-asian:normal;text-align:end;text-anchor:end;fill:#aa0000;stroke:none;stroke-width:0.105833;stroke-dasharray:none;stroke-opacity:1;paint-order:fill markers stroke"
         x="85.836098"
         y="136.42804"
         id="tspan4684">Admin UI files</tspan><tspan
         sodipodi:role="line"
         style="font-style:normal;font-variant:normal;font-weight:normal;font-stretch:normal;font-size:3.52778px;font-family:Ubuntu;-inkscape-font-specification:'Ubuntu, Normal';font-variant-ligatures:normal;font-variant-caps:normal;font-variant-numeric:normal;font-variant-east-asian:normal;text-align:end;text-anchor:end;fill:#aa0000;stroke:none;stroke-width:0.105833;stroke-dasharray:none;stroke-opacity:1;paint-order:fill markers stroke"
         x="86.643959"
         y="140.11995"
         id="tspan9315">REST API calls   </tspan></text><path
       style="fill:none;stroke:#000000;stroke-width:0.264583px;stroke-linecap:butt;stroke-linejoin:miter;stroke-opacity:1"
       d="m 108.92047,171.37217 h 10.53308"
       id="path7647"
       inkscape:tile-cx="111.57245"
       inkscape:tile-cy="168.93432"
       inkscape:tile-w="10.53308"
       inkscape:tile-h="0.26458298"
       inkscape:tile-x0="106.30591"
       inkscape:tile-y0="168.80202" /><use
       x="0"
       y="0"
       inkscape:tiled-clone-of="#path7647"
       xlink:href="#path7647"
       id="use8070"
       transform="translate(-0.47257643,0.00213857)" /><use
       x="0"
       y="0"
       inkscape:tiled-clone-of="#path7647"
       xlink:href="#path7647"
       transform="translate(-0.47257643,1.0604719)"
       id="use8072" /><use
       x="0"
       y="0"
       inkscape:tiled-clone-of="#path7647"
       xlink:href="#path7647"
       transform="translate(-0.47257643,2.1188053)"
       id="use8074" /><use
       x="0"
       y="0"
       inkscape:tiled-clone-of="#path7647"
       xlink:href="#path7647"
       transform="translate(-0.47257643,3.1771386)"
       id="use8076" /><use
       x="0"
       y="0"
       inkscape:tiled-clone-of="#path7647"
       xlink:href="#path7647"
       transform="translate(-0.47257643,4.2354719)"
       id="use8078" /><use
       x="0"
       y="0"
       inkscape:tiled-clone-of="#path7647"
       xlink:href="#path7647"
       transform="translate(-0.47257643,5.2938053)"
       id="use8080" /><use
       x="0"
       y="0"
       inkscape:tiled-clone-of="#path7647"
       xlink:href="#path7647"
       transform="translate(-0.47257643,6.3521386)"
       id="use8082" /><use
       x="0"
       y="0"
       inkscape:tiled-clone-of="#path7647"
       xlink:href="#path7647"
       transform="translate(-0.47257643,7.410472)"
       id="use8084" /></g><style
     type="text/css"
     id="style3221">
	.st0{fill:none;stroke:#000000;stroke-width:2;stroke-linecap:round;stroke-linejoin:round;stroke-miterlimit:10;}
</style><style
     type="text/css"
     id="style4220">.st0{fill-rule:evenodd;clip-rule:evenodd;fill:#DD0031;} .st1{fill-rule:evenodd;clip-rule:evenodd;fill:#C3002F;} .st2{fill-rule:evenodd;clip-rule:evenodd;fill:#FFFFFF;}</style></svg>
