<svg width="19" height="16" viewBox="0 0 19 16" fill="none" xmlns="http://www.w3.org/2000/svg">
<path d="M17.4541 0C18.2573 0 18.9089 0.650982 18.9092 1.4541V14.5459C18.909 15.2989 18.336 15.9178 17.6025 15.9922L17.4541 16H1.4541L1.30566 15.9922C0.621252 15.9226 0.0774091 15.3787 0.0078125 14.6943L0 14.5459V1.4541C0.000239824 0.65113 0.65113 0.000239788 1.4541 0H17.4541ZM1.4541 14.5459H17.4541V1.4541H1.4541V14.5459ZM5.33301 4.36328C6.45772 4.36328 7.47053 5.15223 7.74219 6.23828C7.77433 6.36675 7.75578 6.50388 7.69043 6.61816C7.62506 6.73225 7.51799 6.81454 7.39355 6.84766C7.26914 6.88069 7.13706 6.86216 7.02637 6.79492C6.91555 6.72753 6.83488 6.61675 6.80273 6.48828C6.64257 5.84723 6.01105 5.36328 5.33301 5.36328C4.94738 5.36337 4.57739 5.52155 4.30469 5.80273C4.03199 6.08396 3.879 6.46558 3.87891 6.86328V9.86328C3.87891 10.261 4.03209 10.6426 4.30469 10.9238C4.57739 11.2051 4.94736 11.3632 5.33301 11.3633C5.71878 11.3633 6.08952 11.2051 6.3623 10.9238C6.6348 10.6426 6.78809 10.2609 6.78809 9.86328V8.86328H5.81836C5.68977 8.86328 5.56651 8.81056 5.47559 8.7168C5.38471 8.62304 5.33301 8.49585 5.33301 8.36328C5.3331 8.2308 5.38474 8.10345 5.47559 8.00977C5.56649 7.91618 5.6899 7.86328 5.81836 7.86328H7.27246C7.4009 7.86328 7.52434 7.9162 7.61523 8.00977C7.70608 8.10345 7.75772 8.2308 7.75781 8.36328V9.86328C7.75781 10.5263 7.50249 11.163 7.04785 11.6318C6.59322 12.1006 5.97593 12.3633 5.33301 12.3633C4.69028 12.3632 4.07368 12.1005 3.61914 11.6318C3.16451 11.163 2.90918 10.5263 2.90918 9.86328V6.86328C2.90927 6.20037 3.16459 5.56446 3.61914 5.0957C4.07369 4.627 4.69022 4.36337 5.33301 4.36328ZM9.69727 4.36328C9.82573 4.36336 9.94919 4.4161 10.04 4.50977C10.1309 4.60345 10.1815 4.7308 10.1816 4.86328V11.8633C10.1816 11.9957 10.1308 12.1231 10.04 12.2168C9.94918 12.3105 9.82575 12.3632 9.69727 12.3633C9.56868 12.3633 9.44542 12.3106 9.35449 12.2168C9.26358 12.123 9.21191 11.9959 9.21191 11.8633V4.86328C9.21201 4.7308 9.26365 4.60345 9.35449 4.50977C9.44539 4.41621 9.56883 4.36328 9.69727 4.36328ZM15.5156 4.36328C15.644 4.36341 15.7676 4.41611 15.8584 4.50977C15.9492 4.60345 15.9999 4.73082 16 4.86328C16 4.9957 15.9491 5.12307 15.8584 5.2168C15.7676 5.31045 15.644 5.36315 15.5156 5.36328H12.6064V7.86328H15.0303C15.1588 7.86328 15.2821 7.91613 15.373 8.00977C15.4639 8.10345 15.5155 8.2308 15.5156 8.36328C15.5156 8.49582 15.4639 8.62304 15.373 8.7168C15.2821 8.81056 15.1589 8.86328 15.0303 8.86328H12.6064V11.8633C12.6064 11.9958 12.5547 12.123 12.4639 12.2168C12.3729 12.3106 12.2497 12.3633 12.1211 12.3633C11.9925 12.3632 11.8692 12.3105 11.7783 12.2168C11.6875 12.1231 11.6367 11.9958 11.6367 11.8633V4.86328C11.6368 4.7308 11.6875 4.60345 11.7783 4.50977C11.8692 4.41611 11.9926 4.36331 12.1211 4.36328H15.5156Z" fill="url(#paint0_linear_2134_9882)"/>
<defs>
<linearGradient id="paint0_linear_2134_9882" x1="-0.466071" y1="16" x2="20.2004" y2="14.1086" gradientUnits="userSpaceOnUse">
<stop stop-color="#FF003C"/>
<stop offset="1" stop-color="#EE00FF"/>
</linearGradient>
</defs>
</svg>
