<svg width="512" height="512" viewBox="0 0 135.47 135.47" xmlns="http://www.w3.org/2000/svg"><g transform="translate(-197.633 -419.78) scale(2.5762)"><circle cx="103.01" cy="189.24" r="26.292"/><path d="M103.01 175.31a13.931 13.931 0 0 0-13.931 13.931 13.931 13.931 0 0 0 13.931 13.931 13.931 13.931 0 0 0 12.48-7.744h-4.537a10.068 10.068 0 0 1-7.943 3.882 10.068 10.068 0 0 1-10.069-10.07 10.068 10.068 0 0 1 10.07-10.068 10.068 10.068 0 0 1 7.88 3.803h4.561a13.931 13.931 0 0 0-12.442-7.666z" fill="#f9f9f9"/><path d="M103.01 181.11a8.133 8.133 0 0 0-8.133 8.133 8.133 8.133 0 0 0 8.133 8.133 8.133 8.133 0 0 0 5.278-1.946h-1.7a7.148 7.148 0 0 1-3.578.96 7.148 7.148 0 0 1-7.148-7.147 7.148 7.148 0 0 1 7.148-7.148 7.148 7.148 0 0 1 3.439.882h1.745a8.133 8.133 0 0 0-5.184-1.867z" fill="#f9f9f9"/></g></svg>
