<svg width="512" height="512" xmlns="http://www.w3.org/2000/svg"><path fill="#2e9fff" d="M265.338 497.266c-60.844 0-116.475-22.233-159.487-59.012L0 452.714l40.894-100.93a249.215 249.215 0 0 1-22.241-103.15C18.653 111.324 129.098 0 265.338 0 401.566 0 512 111.325 512 248.633c0 137.334-110.43 248.633-246.662 248.633zM400.03 247.922v-.692c0-71.747-50.596-122.906-137.834-122.906h-94.223v248.633H260.8c87.916.004 139.23-53.292 139.23-125.035zm-136.796 63.949h-27.56V185.429h27.56c40.478 0 67.345 23.077 67.345 62.876v.693c0 40.135-26.867 62.873-67.345 62.873z"/></svg>
