<svg width="512" height="512" xmlns="http://www.w3.org/2000/svg"><g fill="#21759b"><path d="M36.388 255.985c0 86.925 50.516 162.045 123.768 197.643L55.4 166.612a218.77 218.77 0 0 0-19.013 89.373zm367.857-11.081c0-27.14-9.75-45.937-18.11-60.566-11.133-18.09-21.567-33.409-21.567-51.498 0-20.187 15.31-38.979 36.877-38.979.974 0 1.897.121 2.846.176-39.071-35.795-91.125-57.65-148.297-57.65-76.72 0-144.219 39.364-183.486 98.985 5.153.155 10.008.263 14.133.263 22.97 0 58.526-2.787 58.526-2.787 11.838-.698 13.234 16.69 1.408 18.09 0 0-11.896 1.4-25.134 2.093l79.97 237.871 48.06-144.135-34.215-93.744c-11.826-.694-23.029-2.094-23.029-2.094-11.834-.693-10.446-18.787 1.388-18.09 0 0 36.266 2.788 57.845 2.788 22.966 0 58.526-2.787 58.526-2.787 11.847-.698 13.238 16.69 1.409 18.09 0 0-11.922 1.4-25.135 2.093l79.361 236.07 21.905-73.198c9.494-30.375 16.719-52.192 16.719-70.991z"/><path d="m259.846 275.195-65.889 191.462a219.598 219.598 0 0 0 62.037 8.947c25.573 0 50.098-4.421 72.926-12.448a19.285 19.285 0 0 1-1.563-3.026zm188.843-124.57c.944 6.994 1.48 14.504 1.48 22.58 0 22.286-4.163 47.337-16.699 78.66L366.39 445.81c65.288-38.072 109.201-108.804 109.201-189.82.004-38.181-9.749-74.084-26.902-105.366z"/><path d="M255.994 0C114.842 0 0 114.834 0 255.985c0 141.168 114.842 255.998 255.994 255.998C397.14 511.983 512 397.153 512 255.985 511.996 114.835 397.14 0 255.994 0zm0 500.25c-134.679 0-244.256-109.578-244.256-244.265 0-134.678 109.573-244.247 244.256-244.247 134.674 0 244.243 109.569 244.243 244.247 0 134.687-109.569 244.265-244.243 244.265z"/></g></svg>